<svg width="98" height="70" viewBox="0 0 98 70" fill="none" xmlns="http://www.w3.org/2000/svg">
    <path d="M0.25 8.75C0.25 6.42936 1.96205 4.20376 5.00951 2.56282C8.05698 0.921872 12.1902 0 16.5 0L81.5 0C85.8098 0 89.943 0.921872 92.9905 2.56282C96.0379 4.20376 97.75 6.42936 97.75 8.75V61.25C97.75 63.5706 96.0379 65.7962 92.9905 67.4372C89.943 69.0781 85.8098 70 81.5 70H16.5C12.1902 70 8.05698 69.0781 5.00951 67.4372C1.96205 65.7962 0.25 63.5706 0.25 61.25V8.75ZM16.5 10.9375V19.6875C16.5 20.2677 16.928 20.8241 17.6899 21.2343C18.4517 21.6445 19.4851 21.875 20.5625 21.875H77.4375C78.5149 21.875 79.5483 21.6445 80.3101 21.2343C81.072 20.8241 81.5 20.2677 81.5 19.6875V10.9375C81.5 10.3573 81.072 9.80094 80.3101 9.3907C79.5483 8.98047 78.5149 8.75 77.4375 8.75H20.5625C19.4851 8.75 18.4517 8.98047 17.6899 9.3907C16.928 9.80094 16.5 10.3573 16.5 10.9375ZM16.5 28.4375V32.8125C16.5 33.3927 16.928 33.9491 17.6899 34.3593C18.4517 34.7695 19.4851 35 20.5625 35H28.6875C29.7649 35 30.7983 34.7695 31.5601 34.3593C32.322 33.9491 32.75 33.3927 32.75 32.8125V28.4375C32.75 27.8573 32.322 27.3009 31.5601 26.8907C30.7983 26.4805 29.7649 26.25 28.6875 26.25H20.5625C19.4851 26.25 18.4517 26.4805 17.6899 26.8907C16.928 27.3009 16.5 27.8573 16.5 28.4375ZM20.5625 39.375C19.4851 39.375 18.4517 39.6055 17.6899 40.0157C16.928 40.4259 16.5 40.9823 16.5 41.5625V45.9375C16.5 46.5177 16.928 47.0741 17.6899 47.4843C18.4517 47.8945 19.4851 48.125 20.5625 48.125H28.6875C29.7649 48.125 30.7983 47.8945 31.5601 47.4843C32.322 47.0741 32.75 46.5177 32.75 45.9375V41.5625C32.75 40.9823 32.322 40.4259 31.5601 40.0157C30.7983 39.6055 29.7649 39.375 28.6875 39.375H20.5625ZM16.5 54.6875V59.0625C16.5 59.6427 16.928 60.1991 17.6899 60.6093C18.4517 61.0195 19.4851 61.25 20.5625 61.25H28.6875C29.7649 61.25 30.7983 61.0195 31.5601 60.6093C32.322 60.1991 32.75 59.6427 32.75 59.0625V54.6875C32.75 54.1073 32.322 53.5509 31.5601 53.1407C30.7983 52.7305 29.7649 52.5 28.6875 52.5H20.5625C19.4851 52.5 18.4517 52.7305 17.6899 53.1407C16.928 53.5509 16.5 54.1073 16.5 54.6875ZM44.9375 26.25C43.8601 26.25 42.8267 26.4805 42.0649 26.8907C41.303 27.3009 40.875 27.8573 40.875 28.4375V32.8125C40.875 33.3927 41.303 33.9491 42.0649 34.3593C42.8267 34.7695 43.8601 35 44.9375 35H53.0625C54.1399 35 55.1733 34.7695 55.9351 34.3593C56.697 33.9491 57.125 33.3927 57.125 32.8125V28.4375C57.125 27.8573 56.697 27.3009 55.9351 26.8907C" fill="black"/>
</svg>